<svg width="30" height="30" viewBox="0 0 30 30" fill="none" xmlns="http://www.w3.org/2000/svg">
<path d="M15 29.9933C23.2843 29.9933 30 23.2791 30 14.9966C30 6.71422 23.2843 0 15 0C6.71573 0 0 6.71422 0 14.9966C0 23.2791 6.71573 29.9933 15 29.9933Z" fill="#9BEAFF"/>
<path d="M15 15.9224C17.7614 15.9224 20 13.6014 20 10.7383C20 7.87527 17.7614 5.55431 15 5.55431C12.2386 5.55431 10 7.87527 10 10.7383C10 13.6014 12.2386 15.9224 15 15.9224Z" fill="white"/>
<path d="M25.1851 26.1053C25.1851 26.1053 20.9258 30.1784 15.1851 29.9933C9.44432 30.1784 5.18506 26.4756 5.18506 26.4756C5.18506 22.7727 9.66221 16.6629 15.1851 16.6629C20.7079 16.6629 25.1851 22.0321 25.1851 26.1053Z" fill="white"/>
</svg>
