<svg width="40" height="40" viewBox="0 0 40 40" fill="none" xmlns="http://www.w3.org/2000/svg">
<path d="M31.6668 6.66667H8.3335C7.00741 6.66667 5.73564 7.19346 4.79796 8.13114C3.86028 9.06882 3.3335 10.3406 3.3335 11.6667V28.3333C3.3335 29.6594 3.86028 30.9312 4.79796 31.8689C5.73564 32.8065 7.00741 33.3333 8.3335 33.3333H31.6668C32.9929 33.3333 34.2647 32.8065 35.2024 31.8689C36.14 30.9312 36.6668 29.6594 36.6668 28.3333V11.6667C36.6668 10.3406 36.14 9.06882 35.2024 8.13114C34.2647 7.19346 32.9929 6.66667 31.6668 6.66667V6.66667ZM33.3335 23.8333H28.3335C27.3168 23.8333 26.3418 23.4295 25.6229 22.7106C24.904 21.9917 24.5002 21.0167 24.5002 20C24.5002 18.9833 24.904 18.0083 25.6229 17.2894C26.3418 16.5705 27.3168 16.1667 28.3335 16.1667H33.3335V23.8333ZM33.3335 13.3333H28.3335C26.5654 13.3333 24.8697 14.0357 23.6195 15.286C22.3692 16.5362 21.6668 18.2319 21.6668 20C21.6668 21.7681 22.3692 23.4638 23.6195 24.714C24.8697 25.9643 26.5654 26.6667 28.3335 26.6667H33.3335V28.3333C33.3335 28.7754 33.1579 29.1993 32.8453 29.5118C32.5328 29.8244 32.1089 30 31.6668 30H8.3335C7.89147 30 7.46755 29.8244 7.15499 29.5118C6.84242 29.1993 6.66683 28.7754 6.66683 28.3333V11.6667C6.66683 11.2246 6.84242 10.8007 7.15499 10.4882C7.46755 10.1756 7.89147 10 8.3335 10H31.6668C32.1089 10 32.5328 10.1756 32.8453 10.4882C33.1579 10.8007 33.3335 11.2246 33.3335 11.6667V13.3333ZM26.6668 20C26.6668 20.3296 26.7646 20.6519 26.9477 20.926C27.1308 21.2 27.3911 21.4137 27.6957 21.5398C28.0002 21.6659 28.3353 21.699 28.6586 21.6346C28.982 21.5703 29.2789 21.4116 29.512 21.1785C29.7451 20.9454 29.9038 20.6485 29.9681 20.3252C30.0324 20.0019 29.9994 19.6667 29.8733 19.3622C29.7472 19.0577 29.5335 18.7974 29.2594 18.6142C28.9854 18.4311 28.6631 18.3333 28.3335 18.3333C27.8915 18.3333 27.4675 18.5089 27.155 18.8215C26.8424 19.1341 26.6668 19.558 26.6668 20Z" fill="#00BFF3"/>
</svg>
